<?xml version="1.0" encoding="utf-8"?>
<!-- Generator: Adobe Illustrator 15.1.0, SVG Export Plug-In . SVG Version: 6.00 Build 0)  -->
<!DOCTYPE svg PUBLIC "-//W3C//DTD SVG 1.1//EN" "http://www.w3.org/Graphics/SVG/1.1/DTD/svg11.dtd">
<svg version="1.1" xmlns="http://www.w3.org/2000/svg" xmlns:xlink="http://www.w3.org/1999/xlink" x="0px" y="0px" width="1080px"
	 height="1080px" viewBox="0 0 1080 1080" enable-background="new 0 0 1080 1080" xml:space="preserve">
<g id="Layer_1" display="none">
	<g display="inline">
		<path fill-rule="evenodd" clip-rule="evenodd" fill="#FFFFFF" d="M54.311-1.024c327.269,0,654.531,0,981.802,0
			c0,360.342,0,720.687,0,1081.026c-329.009,0-658.017,0-987.024,0c0-355.12,0-710.24,0-1065.359
			C48.64,7.23,48.227-0.147,54.311-1.024z M785.44,56.421C653.367,39.097,593.957,153.524,607.88,291.427
			c28.295,22.187,84.838,16.128,120.114,31.334c-25.513,41.427,2.274,130.752,0,167.115c15.555-15.782,26.818-35.85,47.001-47.001
			c9.871,9.277,0.031,38.265,20.89,36.556c5.998-16.098,6.65-38.193,15.667-62.668c6.016,13.135,2.477,35.822,20.89,36.556
			c8.808-24.921,16.202-8.532,36.557-5.222c2.029-46.767-15.986-110.702-36.557-151.448c47.412-10.034,68.271-46.621,104.447-67.891
			C912.37,151.446,875.837,68.279,785.44,56.421z M325.874,77.311c-138.867-26.632-203.019,97.105-188.005,235.005
			c28.295,22.188,84.838,16.129,120.114,31.334c-28.055,52.231,9.379,129.253-5.222,188.004
			c-25.316,14.721-76.905,3.169-88.78,31.334c29.667,28.57,59.83-15.802,94.002-15.667c22.218,40.027,117.347,17.814,151.448,5.223
			c10.355-13.342-5.419-24.011,5.222-31.334c11.518,11.702,59.524,28.728,73.113,5.223c-27.512-2.53-54.296-20.219-78.335-10.445
			c-10.677-69.793-16.159-138.754-47.001-198.449c47.412-10.034,68.271-46.621,104.447-67.891
			C443.374,175.992,407.006,92.871,325.874,77.311z M816.774,568.212C677.908,541.58,613.756,665.317,628.77,803.218
			c67.258,34.572,136.35,25.545,219.339,15.667c13.002,28.776,14.382,69.176,36.557,88.779
			c-9.111-34.409-13.227-73.812-31.334-99.225c47.411-10.031,68.271-46.621,104.446-67.891
			C934.274,666.894,897.907,583.771,816.774,568.212z M210.982,651.77c-24.261,50.138-34.851,125.445-31.334,188.004
			c28.295,22.188,84.838,16.129,120.114,31.335c-25.513,41.427,2.274,130.752,0,167.114c10.993-15.118,25.872-26.351,36.556-41.778
			c21.925-1.035,10.134,31.646,31.334,31.334c5.253-16.419,3.621-28.43,15.667-47.001c11.903,7.173,19.632-13.461,20.889,0
			c6.454,16.898-16.898,3.99-10.444,20.89c24.569-9.246,19.67-19.671,47.001-5.223c-2.634-16.404,12.309-21.338-5.222-26.111
			c-0.592,6.369-1.561,12.364-10.445,10.444c14.295-12.681-10.506-50.688,10.445-36.557c-9.109-34.409-13.227-73.812-31.334-99.225
			c51.9-5.546,70.415-44.477,104.447-67.891C501.666,637.375,321.09,549.34,210.982,651.77z M748.884,1001.667
			c15.555-15.779,26.818-35.851,47.001-47.001c9.871,9.276,0.03,38.267,20.89,36.556c4.906-19.69,13.106-48.212,15.667-83.558
			c-22.374,3.738-7.39,44.831-26.111,52.224c-8.225-13.637,11.864-39.654-20.89-36.557c-10.976,15.137-10.58,41.644-31.334,47.002
			c-8.637-40.106,5.357-102.844-15.667-130.56C737.08,898.893,745.556,963.07,748.884,1001.667z M853.331,954.666
			c-6.373,0.591-12.365,1.561-10.445,10.444c24.569-9.246,19.673-19.671,47.001-5.223c-2.634-16.401,12.31-21.341-5.222-26.111
			c-0.592,6.372-1.561,12.364-10.445,10.444c-0.89-7.813,1.867-19.272-5.222-20.89c-7.556,4.091-6.967-9.121-15.667,10.445
			c0.688-6.864,0.79-37.786-5.223-20.89C844.095,932.567,854.48,937.849,853.331,954.666z"/>
		<path fill-rule="evenodd" clip-rule="evenodd" fill="#FFFFFF" d="M754.106,77.311c42.459-14.527,79.485,21.422,104.446,41.779
			c-6.467,23.013-29.728,26.558-41.778,26.111C777.436,143.74,777.186,95.255,754.106,77.311z"/>
		<path fill-rule="evenodd" clip-rule="evenodd" fill="#FFFFFF" d="M284.095,98.2c45.52-12.38,89.244,22.119,109.669,52.224
			c-23.404,4.641-28.56,16.781-47.001,15.667C307.337,163.707,308.753,119.99,284.095,98.2z"/>
		<path fill-rule="evenodd" clip-rule="evenodd" fill="#FFFFFF" d="M722.771,134.757c5.103,20.683,1.85,36.946-10.444,52.223
			c-21.817,2.67-35.386-2.912-47.001-10.444C652.655,123.542,704.358,114.153,722.771,134.757z"/>
		<path fill-rule="evenodd" clip-rule="evenodd" fill="#FFFFFF" d="M242.316,145.201c19.285,15.254,17.141,46.035,0,62.668
			c-21.818,2.67-35.386-2.912-47.001-10.445C190.452,159.486,203.627,139.589,242.316,145.201z"/>
		<path fill-rule="evenodd" clip-rule="evenodd" fill="#FFFFFF" d="M921.222,207.87c-10.335,22.741-34.792,31.357-62.669,36.556
			C827.163,193.279,906.816,155.598,921.222,207.87z"/>
		<path fill-rule="evenodd" clip-rule="evenodd" fill="#FFFFFF" d="M451.21,239.204c-18.062,9.636-42.003,35.891-67.891,20.89
			c-7.75-11.562,5.1-37.426,10.445-52.224C427.457,194.156,453.043,196.413,451.21,239.204z"/>
		<path fill-rule="evenodd" clip-rule="evenodd" fill="#FFFFFF" d="M842.886,207.87c-1.779,24.63-31.852,45.583-47.001,26.112
			C810.649,224.375,819.462,208.815,842.886,207.87z"/>
		<path fill-rule="evenodd" clip-rule="evenodd" fill="#FFFFFF" d="M378.097,244.426c-24.467,0.174-32.703,35.057-52.223,10.445
			C337.657,247.05,371.291,209.137,378.097,244.426z"/>
		<path fill-rule="evenodd" clip-rule="evenodd" fill="#FFFFFF" d="M628.77,239.204c19.938,7.913,29.246,26.458,31.334,52.224
			C637.104,307.52,609.066,265.818,628.77,239.204z"/>
		<path fill-rule="evenodd" clip-rule="evenodd" fill="#FFFFFF" d="M158.758,260.093c4.648,3.21,9.34,6.311,10.445,0
			c8.713,15.659,20.247,28.496,20.889,52.223C167.091,328.41,139.052,286.707,158.758,260.093z"/>
		<path fill-rule="evenodd" clip-rule="evenodd" fill="#FFFFFF" d="M247.538,265.315c-8.927,11.962-29.429,12.35-47.001,15.667
			C199.425,249.25,226.289,265.739,247.538,265.315z"/>
		<path fill-rule="evenodd" clip-rule="evenodd" fill="#FFFFFF" d="M289.317,322.761c17.388,11.987,16.97,7.788,36.557,0
			c8.397,12.492,17.184,24.595,15.667,47.001c-20.8,1.653-14.142-24.153-31.334-26.111c-13.342,0.583-10.366,17.487-10.445,31.334
			C275.19,379.414,282.904,332.987,289.317,322.761z"/>
		<path fill-rule="evenodd" clip-rule="evenodd" fill="#FFFFFF" d="M336.318,437.653c13.563,5.584,7.326,30.972,20.89,36.557
			c18.564,8.119,3.152-17.738,15.667-15.667c19.007,12.327,11.212,51.456,20.89,73.113c-38.926,16.104-65.366,17.028-125.336,15.667
			c-2.303-33.44,4.253-66.73,31.334-83.558c14.632,2.777,9.654,25.161,15.667,36.557
			C338.236,491.503,332.585,472.618,336.318,437.653z"/>
		<path fill-rule="evenodd" clip-rule="evenodd" d="M957.777,740.549c-36.176,21.27-57.035,57.859-104.446,67.891
			c18.107,25.413,22.223,64.815,31.334,99.225c-22.175-19.604-23.555-60.003-36.557-88.779
			c-82.989,9.878-152.081,18.905-219.339-15.667c-15.014-137.9,49.139-261.638,188.005-235.006
			C897.907,583.771,934.274,666.894,957.777,740.549z M837.664,656.991c12.051,0.446,35.312-3.098,41.778-26.111
			c-24.962-20.356-61.99-56.309-104.447-41.778C798.075,607.045,798.325,655.53,837.664,656.991z M686.216,688.326
			c11.615,7.532,25.184,13.114,47.001,10.444c12.293-15.277,15.547-31.543,10.444-52.224
			C725.248,625.943,673.545,635.332,686.216,688.326z M879.442,756.217c27.876-5.2,52.333-13.816,62.668-36.557
			C927.706,667.388,848.053,705.068,879.442,756.217z M816.774,745.771c15.149,19.472,45.221-1.484,47.001-26.111
			C840.352,720.605,831.539,736.166,816.774,745.771z M680.993,803.218c-2.089-25.763-11.396-44.309-31.334-52.224
			C629.955,777.608,657.992,819.311,680.993,803.218z M691.438,771.884c17.572-3.318,38.074-3.706,47.002-15.667
			c-18.115,4.189-20.074-7.78-36.557-5.223C705.685,765.243,691.507,761.505,691.438,771.884z"/>
		<path fill-rule="evenodd" clip-rule="evenodd" fill="#FFFFFF" d="M774.995,589.102c42.457-14.53,79.485,21.422,104.447,41.778
			c-6.467,23.014-29.728,26.558-41.778,26.111C798.325,655.53,798.075,607.045,774.995,589.102z"/>
		<path fill-rule="evenodd" clip-rule="evenodd" fill="#FFFFFF" d="M341.541,620.436c40.455,3.064,58.956,28.085,88.78,41.778
			C411.611,726.29,318.889,671.813,341.541,620.436z"/>
		<path fill-rule="evenodd" clip-rule="evenodd" fill="#FFFFFF" d="M743.661,646.547c5.103,20.681,1.849,36.946-10.444,52.224
			c-21.817,2.67-35.386-2.912-47.001-10.444C673.545,635.332,725.248,625.943,743.661,646.547z"/>
		<path fill-rule="evenodd" clip-rule="evenodd" fill="#FFFFFF" d="M289.317,677.881c10.924,17.18,9.096,33.216,0,52.224
			c-15.045-0.625-34.188,2.851-41.779-5.223C242.166,689.914,261.397,679.554,289.317,677.881z"/>
		<path fill-rule="evenodd" clip-rule="evenodd" fill="#FFFFFF" d="M942.11,719.66c-10.335,22.74-34.792,31.356-62.668,36.557
			C848.053,705.068,927.706,667.388,942.11,719.66z"/>
		<path fill-rule="evenodd" clip-rule="evenodd" fill="#FFFFFF" d="M863.775,719.66c-1.78,24.627-31.852,45.583-47.001,26.111
			C831.539,736.166,840.352,720.605,863.775,719.66z"/>
		<path fill-rule="evenodd" clip-rule="evenodd" fill="#FFFFFF" d="M445.987,730.104c26.512-5.623,32.132,9.646,41.779,20.89
			c-6.115,23.478-24.679,34.509-52.223,36.557C444.419,773.796,436.065,742.813,445.987,730.104z"/>
		<path fill-rule="evenodd" clip-rule="evenodd" fill="#FFFFFF" d="M649.659,750.994c19.938,7.915,29.245,26.461,31.334,52.224
			C657.992,819.311,629.955,777.608,649.659,750.994z"/>
		<path fill-rule="evenodd" clip-rule="evenodd" fill="#FFFFFF" d="M701.883,750.994c16.482-2.558,18.441,9.412,36.557,5.223
			c-8.928,11.961-29.43,12.349-47.002,15.667C691.507,761.505,705.685,765.243,701.883,750.994z"/>
		<path fill-rule="evenodd" clip-rule="evenodd" fill="#FFFFFF" d="M414.653,756.217c-1.78,24.63-31.852,45.583-47.001,26.111
			C384.245,774.548,391.229,757.162,414.653,756.217z"/>
		<path fill-rule="evenodd" clip-rule="evenodd" fill="#FFFFFF" d="M289.317,792.772c-1.856,13.811-26.611,4.723-31.334,15.667
			C241.755,786.522,269.415,788.065,289.317,792.772z"/>
		<path fill-rule="evenodd" clip-rule="evenodd" fill="#FFFFFF" d="M195.314,792.772c3.481,0,6.964,0,10.445,0
			c19.946,4.427,19.28,29.463,26.112,47.001C211.65,850.621,186.137,828.069,195.314,792.772z"/>
		<path fill-rule="evenodd" clip-rule="evenodd" d="M848.108,912.887c6.013-16.896,5.911,14.025,5.223,20.89
			c8.7-19.566,8.111-6.354,15.667-10.445c7.089,1.617,4.332,13.077,5.222,20.89c8.885,1.92,9.854-4.072,10.445-10.444
			c17.531,4.771,2.588,9.71,5.222,26.111c-27.328-14.448-22.432-4.023-47.001,5.223c-1.92-8.884,4.072-9.854,10.445-10.444
			C854.48,937.849,844.095,932.567,848.108,912.887z"/>
		<path fill-rule="evenodd" clip-rule="evenodd" d="M466.877,249.648c-36.177,21.27-57.035,57.856-104.447,67.891
			c30.842,59.695,36.325,128.656,47.001,198.449c24.039-9.774,50.823,7.915,78.335,10.445c-13.589,23.505-61.595,6.479-73.113-5.223
			c-10.641,7.324,5.133,17.993-5.222,31.334c-34.101,12.592-129.23,34.805-151.448-5.223c-34.172-0.135-64.336,44.237-94.002,15.667
			c11.875-28.165,63.464-16.613,88.78-31.334c14.601-58.751-22.833-135.773,5.222-188.004
			c-35.276-15.206-91.819-9.147-120.114-31.334c-15.014-137.9,49.138-261.638,188.005-235.005
			C407.006,92.871,443.374,175.992,466.877,249.648z M346.763,166.091c18.441,1.114,23.598-11.026,47.001-15.667
			c-20.425-30.105-64.15-64.604-109.669-52.224C308.753,119.99,307.337,163.707,346.763,166.091z M195.314,197.425
			c11.615,7.533,25.184,13.115,47.001,10.445c17.141-16.633,19.285-47.415,0-62.668
			C203.627,139.589,190.452,159.486,195.314,197.425z M393.764,207.87c-5.345,14.797-18.194,40.662-10.445,52.224
			c25.887,15.001,49.829-11.253,67.891-20.89C453.043,196.413,427.457,194.156,393.764,207.87z M325.874,254.871
			c19.52,24.612,27.756-10.271,52.223-10.445C371.291,209.137,337.657,247.05,325.874,254.871z M190.092,312.316
			c-0.643-23.728-12.176-36.564-20.889-52.223c-1.104,6.311-5.796,3.21-10.445,0C139.052,286.707,167.091,328.41,190.092,312.316z
			 M200.537,280.982c17.572-3.317,38.074-3.705,47.001-15.667C226.289,265.739,199.425,249.25,200.537,280.982z M299.762,374.985
			c0.079-13.847-2.897-30.75,10.445-31.334c17.192,1.958,10.534,27.764,31.334,26.111c1.517-22.406-7.27-34.509-15.667-47.001
			c-19.586,7.788-19.168,11.987-36.557,0C282.904,332.987,275.19,379.414,299.762,374.985z M315.429,500.321
			c-6.013-11.396-1.035-33.78-15.667-36.557c-27.081,16.827-33.637,50.117-31.334,83.558c59.97,1.361,86.411,0.437,125.336-15.667
			c-9.677-21.657-1.882-60.786-20.89-73.113c-12.515-2.071,2.897,23.786-15.667,15.667c-13.563-5.584-7.326-30.972-20.89-36.557
			C332.585,472.618,338.236,491.503,315.429,500.321z"/>
		<path fill-rule="evenodd" clip-rule="evenodd" d="M738.439,839.773c21.024,27.716,7.03,90.453,15.667,130.56
			c20.754-5.358,20.358-31.865,31.334-47.002c32.754-3.098,12.665,22.92,20.89,36.557c18.722-7.393,3.737-48.485,26.111-52.224
			c-2.561,35.346-10.761,63.867-15.667,83.558c-20.859,1.711-11.019-27.279-20.89-36.556c-20.183,11.15-31.446,31.222-47.001,47.001
			C745.556,963.07,737.08,898.893,738.439,839.773z"/>
		<path fill-rule="evenodd" clip-rule="evenodd" d="M508.656,777.105c-34.032,23.414-52.547,62.345-104.447,67.891
			c18.107,25.413,22.226,64.815,31.334,99.225c-20.951-14.132,3.85,23.876-10.445,36.557c8.884,1.92,9.853-4.075,10.445-10.444
			c17.531,4.773,2.588,9.707,5.222,26.111c-27.331-14.448-22.432-4.023-47.001,5.223c-6.454-16.899,16.898-3.991,10.444-20.89
			c-1.257-13.461-8.986,7.173-20.889,0c-12.046,18.571-10.414,30.582-15.667,47.001c-21.201,0.312-9.41-32.369-31.334-31.334
			c-10.684,15.428-25.563,26.66-36.556,41.778c2.274-36.362-25.513-125.688,0-167.114c-35.276-15.206-91.819-9.147-120.114-31.335
			c-3.516-62.559,7.074-137.866,31.334-188.004C321.09,549.34,501.666,637.375,508.656,777.105z M430.32,662.214
			c-29.824-13.693-48.325-38.714-88.78-41.778C318.889,671.813,411.611,726.29,430.32,662.214z M247.538,724.882
			c7.591,8.073,26.734,4.598,41.779,5.223c9.096-19.008,10.924-35.044,0-52.224C261.397,679.554,242.166,689.914,247.538,724.882z
			 M435.543,787.551c27.544-2.048,46.108-13.079,52.223-36.557c-9.646-11.243-15.267-26.513-41.779-20.89
			C436.065,742.813,444.419,773.796,435.543,787.551z M367.652,782.328c15.149,19.472,45.221-1.481,47.001-26.111
			C391.229,757.162,384.245,774.548,367.652,782.328z M257.983,808.439c4.723-10.944,29.478-1.856,31.334-15.667
			C269.415,788.065,241.755,786.522,257.983,808.439z M231.871,839.773c-6.832-17.538-6.166-42.574-26.112-47.001
			c-3.48,0-6.964,0-10.445,0C186.137,828.069,211.65,850.621,231.871,839.773z"/>
	</g>
</g>
<g id="Layer_2">
	<path fill-rule="evenodd" clip-rule="evenodd" d="M921.633,451.728C867.452,280.894,782.066,75.954,582.308,49.747
		c-291.84-38.272-423.121,214.565-392.361,519.308c62.514,49.012,165.996,44.72,236.707,49.139
		c-4.986,96.807,33.742,309.015,28.705,389.383C489.74,972.684,506.333,927.667,535,895c18.668,20,34.571,74.888,70.375,89.483
		C618.634,948.908,599.093,885.096,619,831c13.307,29.037,26.481,94.175,67.163,95.789c-2.471-43.824,4.618-75.334,8.17-66.456
		c2,5,48.001,50.94,72.619,54.92c-7.367-101.129-47.143-248.445-80.789-334.661C790.521,560.741,871.789,518.551,921.633,451.728z
		 M314.333,567.667c-26.667,7.333-96.667-21.333-96.667-29.333c0-22.091-3.667-84.333,6-116.667
		C263.667,440.667,316.333,519,314.333,567.667z M316.896,315.18c-27.997-117.116,86.246-137.865,126.925-92.323
		C469,261,456,317,420.753,338.25C373,360,326,347,316.896,315.18z M352.802,450.557c48.064-19.32,79.923,4.052,118.385,10.034
		C458.299,513.562,378.706,498.584,352.802,450.557z M605.375,442.108c32.641-21.214,52.105-55.598,103.878-57.697
		C705.321,438.836,638.853,485.131,605.375,442.108z M651.537,245.927C564.629,242.702,524,132,513.077,95.909
		C606.901,63.801,709,147,743.858,188.23C735,240,678.188,246.921,651.537,245.927z M747.969,508.198
		c-46.411-98.763,94.578-166.286,126.373-72.733C839,474,804.19,497.854,747.969,508.198z"/>
</g>
<g id="Layer_3" display="none">
	<path display="inline" fill-rule="evenodd" clip-rule="evenodd" d="M922.609,451.713C868.43,280.878,783.043,75.938,583.285,49.731
		c-291.84-38.272-423.121,214.565-392.362,519.308c62.514,49.012,165.995,44.72,236.706,49.139
		c-4.986,96.807,33.742,309.015,28.705,389.383c34.383-34.893,50.977-79.909,79.643-112.576c18.667,20,34.572,74.888,70.375,89.483
		c13.26-35.575-6.281-99.388,13.625-153.483c13.307,29.037,26.482,94.175,67.164,95.789c-2.471-43.824,4.617-75.334,8.17-66.456
		c2,5,48,50.94,72.619,54.92c-7.367-101.129-47.143-248.445-80.789-334.661C791.498,560.726,872.766,518.535,922.609,451.713z
		 M224.644,421.651c40,19,92.667,97.333,90.667,146c-26.667,7.333-96.667-21.333-96.667-29.333
		C218.644,516.227,214.978,453.984,224.644,421.651z M421.731,338.234c-47.754,21.75-94.754,8.75-103.857-23.07
		c-27.998-117.116,86.246-137.865,126.925-92.323C469.977,260.984,456.977,316.984,421.731,338.234z M875.318,435.449
		c-35.342,38.535-70.15,62.39-126.373,72.733C702.535,409.42,843.523,341.897,875.318,435.449z M514.053,95.893
		c93.826-32.108,195.923,51.091,230.783,92.322c-8.859,51.77-65.672,58.691-92.322,57.697
		C565.605,242.686,524.977,131.984,514.053,95.893z M606.352,442.092c32.641-21.214,52.105-55.598,103.879-57.696
		C706.299,438.82,639.83,485.115,606.352,442.092z"/>
	<path display="inline" fill-rule="evenodd" clip-rule="evenodd" fill="#FFFFFF" d="M353.779,450.541
		c25.903,48.027,105.497,63.006,118.385,10.034C433.702,454.594,401.842,431.221,353.779,450.541z"/>
</g>
</svg>
